# xmcd
#
# Track frame offsets:
#	150
#	23592
#	36742
#	51844
#	67221
#	83401
#
# Disc length: 1450 seconds
#
# Revision: 0
# Processed by: cddbd v1.5.1PL0 Copyright (c) Steve Scherf et al.
# Submitted via: dBpowerAMP V4.0
#
DISCID=4b05a806
DTITLE=Stinky Lou and The Goonmat - Original Demo#2
DYEAR=2004
DGENRE=Blues
TTITLE0=Somebody Else
TTITLE1=Poor Black Mattie
TTITLE2=My Babe Don't Love Me No More
TTITLE3=Tell Me
TTITLE4=I Don't Want You Babe
TTITLE5=Endless Boogie
EXTD=
EXTT0=
EXTT1=
EXTT2=
EXTT3=
EXTT4=
EXTT5=
PLAYORDER=
